<?xml version="1.0" encoding="UTF-8"?>
<svg id="Layer_2" data-name="Layer 2" xmlns="http://www.w3.org/2000/svg" xmlns:xlink="http://www.w3.org/1999/xlink" viewBox="0 0 1304.03 225.57">
  <defs>
    <style>
      .cls-1 {
        fill: url(#linear-gradient-2);
      }

      .cls-2 {
        fill: #fff;
      }

      .cls-3 {
        fill: url(#linear-gradient-3);
      }

      .cls-4 {
        fill: #4dc7f6;
      }

      .cls-5 {
        fill: url(#linear-gradient);
      }
    </style>
    <linearGradient id="linear-gradient" x1="9.42" y1="112.79" x2="226.01" y2="112.79" gradientUnits="userSpaceOnUse">
      <stop offset="0" stop-color="#4dbfff"/>
      <stop offset="1" stop-color="#118fe5"/>
    </linearGradient>
    <linearGradient id="linear-gradient-2" x1="26.64" y1="112.78" x2="119.16" y2="112.78" gradientUnits="userSpaceOnUse">
      <stop offset="0" stop-color="#0bf4c7"/>
      <stop offset="1" stop-color="#19ceab"/>
    </linearGradient>
    <linearGradient id="linear-gradient-3" x1="0" y1="112.75" x2="74.15" y2="112.75" gradientUnits="userSpaceOnUse">
      <stop offset="0" stop-color="#94ffea"/>
      <stop offset="1" stop-color="#40ebd0"/>
    </linearGradient>
  </defs>
  <g id="Layer_1-2" data-name="Layer 1">
    <g>
      <path class="cls-5" d="M226.01,169.28c-.08,31.31-26.47,56.23-57.78,56.23h-59.16c-.3,0-.64.06-.94.06H30.7c-16.35,0-26.57-17.69-18.41-31.85l36.82-63.91-2.63,9.49,7.85,6.72,17.03,29.51c1.91,3.32,6,4.15,9.02,2.49,1-.53,1.85-1.38,2.52-2.46l13.33-23.12v-79.28l-13.33-23.09c-1.94-3.32-6.03-4.18-9.02-2.52-1,.55-1.88,1.38-2.52,2.49l-17.03,29.51-11.06,21.27,2.18-11.48L12.3,31.87C4.12,17.7,14.35,0,30.7,0h137.55c31.28,0,57.65,24.89,57.76,56.17.1,30.03-23.31,51.78-52.85,53.64-47.37-.45-47.42,5.42-.06,5.86,29.56,1.83,52.98,23.56,52.9,53.61Z"/>
      <path class="cls-4" d="M67.52,108.53l21.97-38.04,21.72-37.55c3.23-5.65,11.36-5.65,14.65,0l43.63,75.59c1.55,2.67,1.55,5.9,0,8.5l-43.63,75.59c-3.29,5.65-11.42,5.65-14.65,0l-21.72-37.54-21.97-38.04c-1.49-2.61-1.49-5.83,0-8.5Z"/>
      <path class="cls-1" d="M27.63,109.01l19.51-33.78,19.23-33.34c2.92-5.01,10.14-5.01,13.06,0l19.23,33.34,19.51,33.78c1.32,2.37,1.32,5.23,0,7.55l-19.51,33.78-19.23,33.34c-2.92,5.01-10.14,5.01-13.06,0l-19.23-33.34-19.51-33.78c-1.32-2.31-1.32-5.18,0-7.55Z"/>
      <path class="cls-3" d="M.89,116.13l32.25,55.76c1.75,3.03,6.13,3.03,7.88,0l32.26-55.91c1.18-2.04,1.18-4.56,0-6.6l-32.25-55.76c-1.75-3.03-6.13-3.03-7.88,0L.88,109.52c-1.18,2.04-1.18,4.56,0,6.6Z"/>
      <path class="cls-2" d="M309.15,25.89v63.17c7.47-10.02,18-15.37,31.58-16.05,1.87-.17,3.65-.25,5.35-.25,17.32,0,31.54,5.52,42.66,16.55,11.12,11.04,16.69,25.47,16.69,43.3s-5.48,32.82-16.43,43.43c-10.95,10.61-24.83,15.92-41.64,15.92-2.38,0-4.76-.09-7.13-.26-14.1-1.02-24.71-6.96-31.84-17.83v15.79h-32.09V25.89h32.86ZM317.3,157.31c5.6,5.78,13.25,8.66,22.92,8.66,9.17,0,16.72-2.89,22.67-8.66,5.94-5.77,8.91-14.01,8.91-24.7s-2.93-19.23-8.79-25.09c-5.86-5.86-13.46-8.79-22.8-8.79-21.06,0-31.58,11.2-31.58,33.62,0,10.87,2.89,19.19,8.66,24.96Z"/>
      <path class="cls-2" d="M431.96,89.56c11.55-11.37,27.42-17.06,47.63-17.06s36.12,5.69,47.76,17.06c11.63,11.38,17.45,25.64,17.45,42.79s-5.78,31.58-17.32,42.79c-11.72,11.38-27.68,17.06-47.89,17.06s-36.13-5.73-47.76-17.19c-11.63-11.46-17.45-25.68-17.45-42.66s5.86-31.41,17.57-42.79ZM447.76,132.35c0,9.85,2.71,18,8.15,24.45,5.43,6.45,13.33,9.68,23.69,9.68s18.04-3.27,23.56-9.81c5.52-6.53,8.28-14.65,8.28-24.33,0-10.19-2.72-18.42-8.15-24.71-5.44-6.28-13.33-9.42-23.69-9.42s-18.26,3.14-23.69,9.42c-5.44,6.29-8.15,14.52-8.15,24.71Z"/>
      <path class="cls-2" d="M571.33,89.56c11.55-11.37,27.42-17.06,47.63-17.06s36.12,5.69,47.76,17.06c11.63,11.38,17.45,25.64,17.45,42.79s-5.78,31.58-17.32,42.79c-11.72,11.38-27.68,17.06-47.89,17.06s-36.13-5.73-47.76-17.19c-11.63-11.46-17.45-25.68-17.45-42.66s5.86-31.41,17.57-42.79ZM587.13,132.35c0,9.85,2.71,18,8.15,24.45,5.43,6.45,13.33,9.68,23.69,9.68s18.04-3.27,23.56-9.81c5.52-6.53,8.28-14.65,8.28-24.33,0-10.19-2.72-18.42-8.15-24.71-5.44-6.28-13.33-9.42-23.69-9.42s-18.26,3.14-23.69,9.42c-5.44,6.29-8.15,14.52-8.15,24.71Z"/>
      <path class="cls-2" d="M753.78,102.56v-27.53h-27.48v-33.61h-32.89v112.06c0,14.63,2.95,24.3,8.81,29.07,5.86,4.72,16.67,7.13,32.48,7.13h19.08v-27.53h-19.08c-3.09,0-5.18-.64-6.36-1.91-1.23-1.27-1.82-3.54-1.82-6.77v-50.92h27.25Z"/>
      <path class="cls-2" d="M765,152.73h24.45c0,.51.04,1.27.13,2.29.08,1.02.63,2.76,1.65,5.22,1.02,2.46,2.46,4.67,4.33,6.62s4.92,3.69,9.17,5.22c4.25,1.53,9.25,2.29,15.03,2.29,10.53,0,18-1.61,22.41-4.84,4.41-3.22,6.62-7.47,6.62-12.74v-1.78c-.34-4.41-3.31-7.81-8.91-10.19-5.61-2.38-12.23-4.16-19.87-5.35-7.64-1.18-15.29-2.67-22.92-4.46-7.64-1.78-14.18-5.05-19.61-9.81-5.44-4.75-8.24-11.04-8.41-18.85v-.51c0-7.47,3.86-14.9,11.59-22.29,7.73-7.39,20.25-11.08,37.57-11.08,9.17,0,17.19,1.19,24.07,3.57,6.88,2.38,11.93,5.22,15.16,8.53,3.22,3.31,5.81,6.62,7.77,9.93,1.95,3.31,3.1,6.16,3.44,8.53l.51,3.57h-24.71c0-.51-.09-1.15-.25-1.91-.17-.76-.81-2.12-1.91-4.08-1.1-1.95-2.51-3.69-4.2-5.22-1.7-1.53-4.29-2.88-7.77-4.08-3.48-1.18-7.51-1.78-12.1-1.78-8.83,0-15.45,1.53-19.87,4.59-4.42,3.06-6.62,6.79-6.62,11.21v1.02c.17,4.08,3.01,7.31,8.53,9.68,5.51,2.38,12.14,4.21,19.86,5.48s15.45,2.84,23.18,4.71c7.72,1.87,14.43,5.18,20.12,9.93,5.69,4.76,8.7,11.04,9.04,18.85v2.04c0,10.19-4.04,18.59-12.1,25.22-8.07,6.62-21.61,9.93-40.63,9.93-10.19,0-19.02-1.36-26.49-4.08-7.47-2.71-12.91-5.98-16.3-9.8-3.4-3.82-6.11-7.68-8.15-11.59-2.04-3.9-3.14-7.22-3.31-9.93l-.51-4.08Z"/>
      <path class="cls-2" d="M883.71,41.7h22.39v33.34h28.25v19.62h-28.25v68.77c0,2.54.41,4.27,1.27,5.22.86.95,2.54,1.41,5.09,1.41h21.89v19.62h-21.89c-10.54,0-17.94-1.91-22.26-5.63-4.36-3.72-6.5-10.58-6.5-20.62V41.7Z"/>
      <path class="cls-2" d="M1038.48,84.21c-7.9-7.81-20.08-11.72-36.56-11.72-9.86,0-18.44,1.27-25.71,3.82-7.31,2.54-12.67,5.36-16.08,8.4-3.36,3.09-6,6.63-7.86,10.72-1.91,4.09-2.95,6.86-3.23,8.4-.23,1.54-.36,2.82-.36,3.82h24.71v-1.77c.18-1.18.77-2.63,1.77-4.36,1.04-1.68,2.41-3.36,4.22-5.09,1.77-1.68,4.63-3.13,8.54-4.32,3.91-1.18,8.45-1.77,13.72-1.77,17.49,0,26.25,8.81,26.25,26.48-.5,0-3.09.23-7.77.77-4.68.5-8.68.91-11.99,1.27-3.27.32-7.81,1.04-13.49,2.13-5.68,1.14-10.63,2.32-14.9,3.59-4.22,1.27-8.81,3-13.76,5.22-4.91,2.18-8.95,4.68-12.08,7.36-3.13,2.73-5.72,6.04-7.77,9.95-2.23,4.09-3.32,8.4-3.32,12.99,0,9.49,3.59,17.26,10.72,23.17,7.13,5.95,17.31,8.95,30.52,8.95,19.4,0,33.98-6.13,43.83-18.44v15.9h22.39v-73.9c0-13.22-3.91-23.76-11.81-31.57ZM1027.9,145.35c0,8.13-4.45,14.99-13.35,20.49-8.95,5.54-18.31,8.31-28.16,8.31-5.77,0-10.54-1.23-14.26-3.59-3.72-2.36-5.59-5.86-5.59-10.45,0-5.95,3.45-10.95,10.4-15.03,8.86-5.09,25.85-8.72,50.96-10.95v11.22Z"/>
      <path class="cls-2" d="M1082.2,88.8c10.86-10.86,25.55-16.3,44.06-16.3,9.51,0,17.87,1.27,25.09,3.82,7.21,2.55,12.61,5.65,16.17,9.3,3.57,3.66,6.45,7.31,8.66,10.95,2.2,3.66,3.57,6.75,4.08,9.3l.51,3.82h-24.71c-.17-.51-.38-1.19-.64-2.04-.25-.85-1.1-2.42-2.55-4.71-1.44-2.29-3.14-4.28-5.09-5.98-1.96-1.7-4.84-3.22-8.66-4.59-3.82-1.36-8.11-2.04-12.86-2.04-11.72,0-20.85,3.95-27.38,11.84-6.54,7.9-9.81,17.79-9.81,29.67s3.31,21.95,9.94,30.19c6.62,8.24,15.7,12.35,27.25,12.35,7.64,0,13.92-2,18.85-5.99,4.92-3.99,7.98-7.94,9.17-11.84l1.78-6.11h24.71c-.17,1.19-.43,2.72-.76,4.59-.34,1.87-1.66,5.18-3.95,9.93-2.29,4.76-5.23,9-8.79,12.74-3.57,3.74-8.96,7.09-16.18,10.06-7.22,2.97-15.49,4.46-24.83,4.46-18.85,0-33.67-5.39-44.45-16.17-10.79-10.78-16.18-25.51-16.18-44.19,0-17.66,5.52-32,16.56-43.04Z"/>
      <path class="cls-2" d="M1254.87,123.44l44.07-48.39h-28.01l-52.46,58.08V25.89h-22.42v163.77h22.42v-26.21l20.62-22.56h-.08l15.86-17.44ZM1282.91,161.21l21.12,28.44h-25.47l-27.1-35.6h17.22c5.61,0,10.88,2.65,14.22,7.15Z"/>
      <polyline class="cls-2" points="1218.47 163.44 1239.01 140.88 1254.87 123.44 1298.94 75.05"/>
    </g>
  </g>
</svg>